<?xml version="1.0" encoding="utf-8" ?>
<svg xmlns="http://www.w3.org/2000/svg" xmlns:xlink="http://www.w3.org/1999/xlink" width="1024" height="1024">
	<path fill="#308B35" d="M615.407 347.377C620.71 341.472 625.633 335.364 631.358 329.836C643.96 317.668 674.834 293.376 692.236 292.331C696.148 292.096 699.878 293.239 702.704 296.015C705.414 298.678 707.086 302.421 707.03 306.233C706.971 310.199 705.227 313.709 702.311 316.349C695.334 322.663 685.077 325.412 677.026 330.283C651.215 345.901 630.788 369.662 617.334 396.493C609.787 391.574 601.046 388.34 593.015 384.276C595.548 377.527 599.019 371.419 603.003 365.437C605.905 361.078 609.219 356.715 611.282 351.894C611.849 351.094 612.698 350.724 613.528 350.226L614.045 350.115C615.155 349.099 615.099 348.876 615.407 347.377Z"/>
	<path fill="#216B21" d="M436.653 282.578C446.593 282.476 456.723 284.887 466.59 285.992Q499.646 289.644 532.75 292.839C538.728 293.405 552.104 295.288 557.301 294.884C558.637 294.975 559.409 295.113 560.481 295.953C571.682 304.726 581.28 316.816 591.18 327.085C597.58 333.724 604.713 339.871 610.782 346.775Q612.233 348.438 613.528 350.226C612.698 350.724 611.849 351.094 611.282 351.894C595.657 358.471 560.845 357.622 543.96 354.642C499.186 346.741 462.309 319.315 436.653 282.578Z"/>
	<path fill="#449D36" d="M516.845 159.584C526.495 164.715 535.918 170.047 544.764 176.493C574.09 197.859 594.727 228.44 605.311 262.959Q607.876 271.567 609.849 280.33Q611.823 289.092 613.195 297.969Q614.568 306.845 615.333 315.795Q616.099 324.744 616.254 333.725C616.326 337.791 616.744 343.523 615.407 347.377C615.099 348.876 615.155 349.099 614.045 350.115L613.528 350.226Q612.233 348.438 610.782 346.775C604.713 339.871 597.58 333.724 591.18 327.085C581.28 316.816 571.682 304.726 560.481 295.953C559.409 295.113 558.637 294.975 557.301 294.884L558.022 294.15C558.687 290.984 537.919 272.304 535.03 267.423C533.713 262.462 533.209 257.11 532.165 252.058C528.108 232.437 524.821 212.863 521.634 193.088C519.875 182.171 516.664 170.629 516.845 159.584Z"/>
	<path fill="#308B35" d="M401.088 125.328C410.703 126.096 420.531 129.098 429.922 131.321C458.415 138.069 491.137 145.338 516.845 159.584C516.664 170.629 519.875 182.171 521.634 193.088C524.821 212.863 528.108 232.437 532.165 252.058C533.209 257.11 533.713 262.462 535.03 267.423C537.919 272.304 558.687 290.984 558.022 294.15L557.301 294.884C552.104 295.288 538.728 293.405 532.75 292.839Q499.646 289.644 466.59 285.992C456.723 284.887 446.593 282.476 436.653 282.578C431.011 275.893 426.895 266.86 423.037 259.009C401.999 216.197 397.491 172.392 401.088 125.328Z"/>
	<path fill="#68C256" d="M401.088 125.328C410.703 126.096 420.531 129.098 429.922 131.321C458.415 138.069 491.137 145.338 516.845 159.584C516.664 170.629 519.875 182.171 521.634 193.088C524.821 212.863 528.108 232.437 532.165 252.058C533.209 257.11 533.713 262.462 535.03 267.423C531.333 262.522 526.205 258.113 521.968 253.65C514.677 245.97 507.583 238.09 500.325 230.375L436.361 162.446C424.614 150.075 412.353 138.143 401.088 125.328Z"/>
	<path fill="#E0712A" d="M664.166 431.818C675.628 441.705 685.86 454.921 694.208 467.484C714.922 498.659 725.888 525.203 728.686 562.794C733.819 631.734 701.227 696.849 657.157 747.913C607.469 805.485 532.781 857.429 454.919 863.058C424.926 865.227 385.969 857.149 362.814 837.305L362.393 836.937C367.572 836.147 372.948 836.18 378.169 835.597C386.628 834.652 395.213 832.946 403.49 830.959C471.227 814.697 534.401 770.784 581.772 720.809C627.634 672.427 660.716 611.349 671.273 545.165C673.77 529.513 675.227 513.161 674.578 497.329C674.003 483.318 672.712 469.22 669.93 455.461C668.695 449.35 664.104 438.222 664.14 432.716C664.142 432.417 664.157 432.117 664.166 431.818Z"/>
	<path fill="#FBB951" d="M319.839 768.549C313.678 753.454 309.107 738.088 304.66 722.421C290.742 673.397 281.12 621.669 283.343 570.501C285.852 512.759 308.917 462.856 351.664 423.797C396.194 383.108 454.882 363.845 514.713 366.47C521.165 378.868 519.095 392.113 515.022 405.019C507.595 428.549 490.196 448.04 472.351 464.48C463.667 472.481 454.667 480.045 446.698 488.796Q444.384 491.357 442.186 494.018Q439.987 496.678 437.908 499.434Q435.829 502.189 433.874 505.033Q431.919 507.878 430.091 510.805Q428.263 513.733 426.567 516.739Q424.87 519.745 423.308 522.822Q421.745 525.9 420.321 529.044Q418.896 532.188 417.611 535.391Q415.072 541.782 413.019 548.346Q410.966 554.909 409.412 561.609Q407.857 568.308 406.81 575.105Q405.763 581.902 405.228 588.758C404.335 601.445 404.506 614.205 403.623 626.873Q403.407 630.17 403.08 633.458Q402.753 636.745 402.315 640.02Q401.876 643.294 401.327 646.552Q400.778 649.81 400.119 653.048Q399.46 656.285 398.692 659.499Q397.923 662.712 397.047 665.897Q396.17 669.083 395.186 672.237Q394.202 675.391 393.111 678.509Q392.021 681.628 390.826 684.708Q389.63 687.788 388.331 690.826Q387.032 693.864 385.631 696.856Q384.23 699.848 382.728 702.791Q381.227 705.734 379.626 708.624Q378.026 711.514 376.328 714.349Q374.631 717.183 372.838 719.959Q371.046 722.734 369.16 725.447C358.667 740.562 344.583 755.975 327.987 764.41C325.262 765.795 322.47 766.981 319.839 768.549Z"/>
	<path fill="#F7C889" d="M436.855 410.697C436.948 410.68 437.039 410.657 437.132 410.647C444.295 409.895 454.818 409.78 460.663 414.685C462.633 416.339 463.856 418.569 463.98 421.157C464.576 433.538 443.327 448.603 434.978 455.938Q427.307 462.708 420.213 470.08Q414.313 476.219 409.144 482.986Q403.976 489.753 399.606 497.061Q396.203 502.621 393.184 508.399Q390.165 514.176 387.543 520.145Q384.921 526.113 382.708 532.245Q380.495 538.377 378.702 544.644Q375.574 556.044 374.012 567.762C372.193 581.252 372.925 598.247 363.207 608.916C357.174 615.54 348.858 618.291 340.113 618.64C334.183 617.804 329.042 616.203 324.301 612.453C317.383 606.983 313.229 598.754 312.23 590.061C311.197 581.078 312.567 571.721 313.655 562.796C318.075 526.542 330.037 491.273 352.871 462.365C373.878 435.77 402.496 414.704 436.855 410.697Z"/>
	<path fill="#F2952A" d="M514.713 366.47C542.049 368.029 567.452 374.728 593.015 384.276C601.046 388.34 609.787 391.574 617.334 396.493C633.128 405.567 651.511 418.881 664.166 431.818C664.157 432.117 664.142 432.417 664.14 432.716C664.104 438.222 668.695 449.35 669.93 455.461C672.712 469.22 674.003 483.318 674.578 497.329C675.227 513.161 673.77 529.513 671.273 545.165C660.716 611.349 627.634 672.427 581.772 720.809C534.401 770.784 471.227 814.697 403.49 830.959C395.213 832.946 386.628 834.652 378.169 835.597C372.948 836.18 367.572 836.147 362.393 836.937C341.24 819.601 330.184 793.099 319.839 768.549C322.47 766.981 325.262 765.795 327.987 764.41C344.583 755.975 358.667 740.562 369.16 725.447Q371.046 722.734 372.838 719.959Q374.631 717.183 376.328 714.349Q378.026 711.514 379.626 708.624Q381.227 705.734 382.728 702.791Q384.23 699.848 385.631 696.856Q387.032 693.864 388.331 690.826Q389.63 687.788 390.826 684.708Q392.021 681.628 393.111 678.509Q394.202 675.391 395.186 672.237Q396.17 669.083 397.047 665.897Q397.923 662.712 398.692 659.499Q399.46 656.285 400.119 653.048Q400.778 649.81 401.327 646.552Q401.876 643.294 402.315 640.02Q402.753 636.745 403.08 633.458Q403.407 630.17 403.623 626.873C404.506 614.205 404.335 601.445 405.228 588.758Q405.763 581.902 406.81 575.105Q407.857 568.308 409.412 561.609Q410.966 554.909 413.019 548.346Q415.072 541.782 417.611 535.391Q418.896 532.188 420.321 529.044Q421.745 525.9 423.308 522.822Q424.87 519.745 426.567 516.739Q428.263 513.733 430.091 510.805Q431.919 507.878 433.874 505.033Q435.829 502.189 437.908 499.434Q439.987 496.678 442.186 494.018Q444.384 491.357 446.698 488.796C454.667 480.045 463.667 472.481 472.351 464.48C490.196 448.04 507.595 428.549 515.022 405.019C519.095 392.113 521.165 378.868 514.713 366.47Z"/>
	<path fill="#FEFEFE" d="M503.75 507.973C506.343 507.993 508.711 508.256 510.566 510.267C513.693 513.658 512.825 519.763 512.553 523.974C525.095 524.177 543.486 525.458 554.194 532.626C551.843 540.712 545.986 558.319 541.569 565.02C529.107 563.233 517.231 556.248 504.255 557.966C500.54 558.458 496.581 560.001 494.398 563.208C492.751 565.629 492.43 568.676 493.019 571.496C495.496 583.339 510.912 586.895 520.447 590.919C525.997 593.261 531.621 596.002 536.623 599.373C547.173 606.482 554.481 617.139 556.885 629.67C559.297 642.249 556.355 656.27 549.128 666.84C540.565 679.367 526.118 684.59 511.784 687.244C511.769 690.621 511.881 694.13 511.424 697.482C511.102 699.842 510.289 703.029 508.098 704.361C506.789 705.157 505.44 705.169 503.995 704.904C500.575 704.277 499.301 703.488 497.336 700.654C496.289 696.608 496.576 692.404 496.651 688.265Q488.899 688.002 481.281 686.541C471.95 684.708 449.167 678.127 443.677 669.956C445.314 663.245 451.229 646.864 456.101 641.952C456.476 641.574 457.46 640.784 458 640.791C460.722 640.828 468.891 646.416 472.145 647.845C479.248 650.964 487.304 652.913 495.097 652.615C500.264 652.418 505.602 651.16 509.141 647.121C511.247 644.717 511.926 641.935 511.536 638.783C510.029 626.604 488.933 620.887 479.265 616.351Q475.927 614.824 472.802 612.9Q469.676 610.976 466.81 608.683C457.247 600.93 450.873 590.07 449.622 577.758C448.382 565.558 451.563 553.191 459.422 543.673C468.944 532.139 483.33 525.787 498.004 524.324C497.887 521.534 497.544 518.314 498.019 515.57C498.673 511.79 500.672 509.992 503.75 507.973Z"/>
</svg>
